# xmcd CD database file
#
# Track frame offsets:
#	150
#	18711
#	34055
#	45477
#	60197
#	73651
#	93814
#	118231
#	137676
#	152840
#	168845
#
# Disc length: 2543 seconds
#
# Revision: 0
# Processed by: cddbd v1.5.1PL0 Copyright (c) Steve Scherf et al.
# Submitted via: CDex 1.51
#
DISCID=8909ed0b
DTITLE=ColvinQuarmby - A Short Walk To The Red Lion 
DYEAR=2004
DGENRE=Country
TTITLE0=I Look The Same But I Have Changed
TTITLE1=Girls World
TTITLE2=Go And Ask Somebody Else
TTITLE3=Mermaid's Eyes
TTITLE4=Wings And A Prayer
TTITLE5=The Right Stop
TTITLE6=I Am The Bell
TTITLE7=The Poacher, The Highwayman and The Rustling Wheelwright
TTITLE8=What I Did To Her Last Night I'd Rather Do To You
TTITLE9=The Ocean
TTITLE10=One More Week
EXTD=YEAR: 2004
EXTT0=
EXTT1=
EXTT2=
EXTT3=
EXTT4=
EXTT5=
EXTT6=
EXTT7=
EXTT8=
EXTT9=
EXTT10=
PLAYORDER=
